<svg width="30" height="31" viewBox="0 0 30 31" fill="none" xmlns="http://www.w3.org/2000/svg">
<path fill-rule="evenodd" clip-rule="evenodd" d="M9.79543 24.5366C9.71463 24.5717 9.62783 24.5965 9.53639 24.6093L5.0065 25.246C3.91268 25.3997 2.90135 24.6376 2.74762 23.5438L0.0197129 4.13373C-0.134014 3.03991 0.628085 2.02858 1.7219 1.87485L6.25179 1.23822C6.7987 1.16135 7.30437 1.5424 7.38123 2.08931C7.45809 2.63622 7.07704 3.14189 6.53013 3.21875L2.00025 3.85538L4.72816 23.2654L8.60517 22.7206L8.49005 23.122C8.33782 23.6529 8.64478 24.2067 9.17567 24.3589L9.79543 24.5366ZM17.7534 5.79701L15.6489 5.19357L15.2002 2.00025L10.6703 2.63688C10.1234 2.71375 9.61769 2.3327 9.54083 1.78579C9.46396 1.23888 9.84501 0.73321 10.3919 0.656347L14.9218 0.0197129C16.0156 -0.134014 17.027 0.628084 17.1807 1.7219L17.7534 5.79701Z" fill="black"/>
<path fill-rule="evenodd" clip-rule="evenodd" d="M23.3245 28.1009C23.0201 29.1627 21.9125 29.7766 20.8507 29.4722L16.4535 28.2113C15.9226 28.0591 15.6157 27.5053 15.7679 26.9744C15.9201 26.4435 16.4739 26.1365 17.0048 26.2888L21.402 27.5496L26.8047 8.70813L22.4075 7.44725C21.8766 7.29502 21.5697 6.74124 21.7219 6.21035C21.8741 5.67946 22.4279 5.3725 22.9588 5.52473L27.356 6.7856C28.4178 7.09006 29.0317 8.19762 28.7272 9.2594L23.3245 28.1009ZM12.0689 4.48272C12.3734 3.42094 13.4809 2.80702 14.5427 3.11148L18.9399 4.37235C19.4708 4.52458 19.7777 5.07836 19.6255 5.60925C19.4733 6.14014 18.9195 6.44711 18.3886 6.29488L13.9914 5.034L8.5887 23.8755L12.9859 25.1364C13.5168 25.2886 13.8238 25.8424 13.6715 26.3733C13.5193 26.9042 12.9655 27.2111 12.4346 27.0589L8.03743 25.798C6.97565 25.4936 6.36172 24.386 6.66618 23.3242L12.0689 4.48272Z" fill="black"/>
</svg>
